<?xml version="1.0" encoding="UTF-8"?>
<svg id="Layer_1" data-name="Layer 1" xmlns="http://www.w3.org/2000/svg" viewBox="0 0 2359.37 911.71">
  <defs>
    <style>
      .cls-1 {
        fill: #fff;
        stroke-width: 0px;
      }
    </style>
  </defs>
  <g>
    <polygon class="cls-1" points="1776.95 284.79 1819.78 284.79 1819.78 141.51 1874.55 141.51 1874.55 103.09 1722.18 103.09 1722.18 141.51 1776.95 141.51 1776.95 284.79"/>
    <path class="cls-1" d="M1627.18,288.68c43.09,0,79.43-29.07,90.59-68.27h-42.31c-8.82,18.69-27,31.93-48.28,31.93-29.85,0-53.73-25.7-53.73-57.62s23.88-57.11,53.99-57.11c21.54,0,40.49,12.98,49.06,32.96h41.79c-10.64-40.23-47.5-69.3-90.85-69.3-51.91,0-94.23,42.05-94.23,93.7s42.31,93.71,93.97,93.71"/>
    <path class="cls-1" d="M1426.79,287.9c48.8,0,80.47-31.67,80.47-71.64v-113.17h-41.53v106.94c0,30.11-18.17,41.53-37.64,41.53s-38.16-11.42-38.16-41.53v-106.94h-42.83v113.69c0,36.6,30.89,71.12,79.69,71.12"/>
    <path class="cls-1" d="M1274.94,217.82c35.56-9.34,43.09-36.34,43.09-57.88,0-32.19-19.47-56.85-58.66-56.85h-100.45v181.7h42.83v-63.34h29.07l45.94,63.34h49.06l-50.88-66.97ZM1249.25,184.6h-47.5v-44.39h48.28c15.57,0,23.62,8.56,23.62,21.8s-7.53,22.58-24.4,22.58Z"/>
    <polygon class="cls-1" points="1038.22 284.8 1081.05 284.8 1081.05 141.51 1135.56 141.51 1135.56 103.09 983.45 103.09 983.45 141.51 1038.22 141.51 1038.22 284.8"/>
    <path class="cls-1" d="M895.45,287.39c47.24,0,77.87-19.73,77.87-59.44,0-33.22-21.54-45.17-52.43-50.36l-37.38-6.23c-19.21-3.12-23.36-9.08-23.36-16.87,0-12.72,11.16-20.25,30.63-20.25,17.91,0,32.71,6.23,36.6,24.14h43.61c-5.19-39.19-38.42-57.88-79.95-57.88-44.91,0-72.16,22.06-72.16,56.59,0,27,16.87,45.16,50.1,50.88l40.23,7.01c13.5,2.34,22.58,10.12,22.58,19.99,0,10.9-10.64,18.69-32.44,18.69s-38.68-8.3-41.27-24.14h-44.13c4.41,38.16,34.26,57.89,81.5,57.89"/>
    <polygon class="cls-1" points="627.06 284.79 666.51 284.79 666.51 169.8 750.35 284.79 785.91 284.79 785.91 103.09 746.46 103.09 746.46 212.89 667.03 103.09 627.06 103.09 627.06 284.79"/>
    <path class="cls-1" d="M506.1,101.28c-51.91,0-94.22,42.05-94.22,93.7s42.31,93.71,94.22,93.71,93.96-42.05,93.96-93.71-42.31-93.7-93.96-93.7ZM505.84,252.34c-29.85,0-53.73-25.7-53.73-57.62s23.88-57.11,53.73-57.11,53.99,25.18,53.99,57.11-24.14,57.62-53.99,57.62Z"/>
    <polygon class="cls-1" points="311.16 244.82 353.47 244.82 389.81 194.98 353.47 145.14 311.16 145.14 348.54 194.98 311.16 244.82"/>
    <path class="cls-1" d="M196.43,288.68c43.09,0,79.43-29.07,90.59-68.27h-42.31c-8.82,18.69-27,31.93-48.28,31.93-29.85,0-53.73-25.7-53.73-57.62s23.88-57.11,53.99-57.11c21.54,0,40.49,12.98,49.06,32.96h41.79c-10.64-40.23-47.5-69.3-90.85-69.3-51.91,0-94.22,42.05-94.22,93.7s42.31,93.71,93.96,93.71"/>
    <path class="cls-1" d="M2208.88,217.82c35.56-9.34,43.09-36.34,43.09-57.88,0-32.19-19.47-56.85-58.66-56.85h-100.45v181.7h42.83v-63.34h29.07l45.94,63.34h49.06l-50.88-66.97ZM2183.18,184.6h-47.5v-44.39h48.28c15.58,0,23.62,8.56,23.62,21.8s-7.53,22.58-24.4,22.58Z"/>
    <path class="cls-1" d="M1972.93,101.28c-51.92,0-94.22,42.05-94.22,93.7s42.31,93.71,94.22,93.71,93.96-42.05,93.96-93.71-42.31-93.7-93.96-93.7ZM1972.67,252.34c-29.85,0-53.73-25.7-53.73-57.62s23.88-57.11,53.73-57.11,53.99,25.18,53.99,57.11-24.14,57.62-53.99,57.62Z"/>
  </g>
  <g>
    <path class="cls-1" d="M121.84,364.34h14.45v181.92h-14.45v-181.92Z"/>
    <path class="cls-1" d="M183.06,364.34h20.33l83.47,120.92c10.44,15.25,20.6,30.77,29.7,44.94h.53c-.26-24.08-.8-43.07-.8-66.61v-99.25h13.65v181.92h-18.73l-75.71-109.95c-13.11-19-26.75-38.26-39.33-58.86h-.53c.53,25.95.53,58.86.53,83.47v85.34h-13.11v-181.92Z"/>
    <path class="cls-1" d="M366.48,494.36h14.71c3.75,29.43,27.56,42,60.73,42,29.43,0,51.37-12.04,51.37-36.65,0-16.86-8.03-24.35-19.26-29.43-10.7-5.35-23.27-7.22-37.46-9.63-16.58-2.94-28.09-5.08-40.13-10.97-13.38-6.69-21.94-18.19-21.94-36.38,0-32.11,26.22-51.64,62.07-51.64s62.87,16.05,67.15,52.17h-14.98c-3.75-27.02-25.15-39.6-52.97-39.6s-47.36,14.98-47.36,37.72c0,25.15,23.01,30.23,49.23,34.52,22.74,3.74,39.33,7.22,51.1,14.98,11.23,7.22,18.99,17.66,18.99,36.65,0,33.18-28.09,50.83-66.35,50.83-42,0-71.43-17.39-74.91-54.57Z"/>
    <path class="cls-1" d="M585.42,377.18h-65.55v-12.84h145.54v12.84h-65.54v169.08h-14.45v-169.08Z"/>
    <path class="cls-1" d="M691.38,364.34h14.45v181.92h-14.45v-181.92Z"/>
    <path class="cls-1" d="M797.04,377.18h-65.55v-12.84h145.54v12.84h-65.54v169.08h-14.45v-169.08Z"/>
    <path class="cls-1" d="M904.02,483.67v-119.32h13.91v116.11c0,35.85,24.08,56.45,60.73,56.45s59.39-20.6,59.39-56.45v-116.11h13.38v118.79c0,35.58-25.15,66.34-73.84,66.34s-73.57-30.77-73.57-65.81Z"/>
    <path class="cls-1" d="M1144.13,377.18h-65.54v-12.84h145.54v12.84h-65.55v169.08h-14.45v-169.08Z"/>
    <path class="cls-1" d="M1250.09,364.34h122.26v12.84h-108.35v70.63h73.57v12.85h-73.57v72.5h111.03v13.11h-124.94v-181.92Z"/>
    <path class="cls-1" d="M1466.01,454.5c0-53.78,37.99-92.84,91.5-92.84s90.69,39.06,90.69,92.84-37.72,94.44-90.69,94.44-91.5-39.59-91.5-94.44ZM1633.49,454.5c0-46.82-31.57-80.26-76.25-80.26s-76.25,33.45-76.25,80.26,31.57,81.86,76.25,81.86,76.25-34.24,76.25-81.86Z"/>
    <path class="cls-1" d="M1684.42,364.34h124.94v12.84h-111.02v70.9h78.65v12.85h-78.65v85.34h-13.91v-181.92Z"/>
    <path class="cls-1" d="M148.71,638.65h-65.54v-12.84h145.53v12.84h-65.54v169.08h-14.44v-169.08Z"/>
    <path class="cls-1" d="M254.67,625.81h122.26v12.84h-108.35v70.63h73.57v12.85h-73.57v72.5h111.03v13.11h-124.94v-181.92Z"/>
    <path class="cls-1" d="M386.57,716.5c0-54.31,36.12-93.37,86.95-93.37,42.27,0,73.04,24.61,82.94,65.02h-14.98c-8.82-33.45-34.24-52.44-68.49-52.44-41.74,0-71.16,33.71-71.16,80.26s29.16,81.86,73.3,81.86c32.91,0,58.32-18.46,67.42-54.04h14.45c-9.63,41.2-40.67,66.61-82.4,66.61-52.97,0-88.02-39.59-88.02-93.9Z"/>
    <path class="cls-1" d="M591.61,625.81h13.91v82.67h118.52v-82.67h13.91v181.92h-13.91v-86.42h-118.52v86.42h-13.91v-181.92Z"/>
    <path class="cls-1" d="M785.12,625.81h20.33l83.47,120.92c10.44,15.25,20.6,30.77,29.7,44.94h.53c-.26-24.08-.81-43.07-.81-66.61v-99.25h13.64v181.92h-18.73l-75.71-109.95c-13.11-19-26.75-38.26-39.33-58.86h-.53c.53,25.95.53,58.86.53,83.47v85.34h-13.11v-181.92Z"/>
    <path class="cls-1" d="M968.48,715.97c0-53.78,37.99-92.84,91.49-92.84s90.69,39.06,90.69,92.84-37.72,94.44-90.69,94.44-91.49-39.59-91.49-94.44ZM1135.96,715.97c0-46.82-31.57-80.26-76.24-80.26s-76.25,33.45-76.25,80.26,31.57,81.86,76.25,81.86,76.24-34.24,76.24-81.86Z"/>
    <path class="cls-1" d="M1186.9,625.81h14.18v169.08h103.8v12.85h-117.98v-181.92Z"/>
    <path class="cls-1" d="M1311.16,715.97c0-53.78,37.99-92.84,91.49-92.84s90.69,39.06,90.69,92.84-37.72,94.44-90.69,94.44-91.49-39.59-91.49-94.44ZM1478.63,715.97c0-46.82-31.57-80.26-76.24-80.26s-76.25,33.45-76.25,80.26,31.57,81.86,76.25,81.86,76.24-34.24,76.24-81.86Z"/>
    <path class="cls-1" d="M1518.57,718.38c0-56.46,37.72-95.25,90.96-95.25,41.74,0,71.16,21.94,81.86,54.85h-15.51c-9.37-25.41-33.98-42.27-66.35-42.27-44.68,0-76.24,32.38-76.24,81.87s32.1,80.26,78.38,80.26c37.72,0,66.35-24.07,70.63-70.09h-65.01v-11.77h80.8v91.76h-10.7l-1.08-54.04c-9.89,36.92-37.99,56.71-76.78,56.71-54.31,0-90.96-37.99-90.96-92.03Z"/>
    <path class="cls-1" d="M1775.56,731.22l-70.63-105.41h17.12l40.93,61.8c7.76,12.31,14.18,21.41,19.8,30.5h.8c5.35-8.56,10.97-17.39,18.73-29.16l41.47-63.14h16.32l-70.36,105.41v76.52h-14.18v-76.52Z"/>
  </g>
</svg>